<svg enable-background="new 0 0 100 100" viewBox="0 0 100 100" xmlns="http://www.w3.org/2000/svg"><svg height="100" shape-rendering="crispEdges" version="1.1" viewBox="0 0 2000 2000" width="100" xmlns="http://www.w3.org/2000/svg" xmlns:xlink="http://www.w3.org/1999/xlink"><path d="m0 0h2000v2000h-2000z" fill="#fff"/><path d="m1096 200h64v64h-64z"/><path d="m1160 200h64v64h-64z"/><path d="m712 264h64v64h-64z"/><path d="m904 264h64v64h-64z"/><path d="m1032 264h64v64h-64z"/><path d="m1096 264h64v64h-64z"/><path d="m1224 264h64v64h-64z"/><path d="m712 328h64v64h-64z"/><path d="m840 328h64v64h-64z"/><path d="m1160 328h64v64h-64z"/><path d="m1224 328h64v64h-64z"/><path d="m840 392h64v64h-64z"/><path d="m904 392h64v64h-64z"/><path d="m1160 392h64v64h-64z"/><path d="m712 456h64v64h-64z"/><path d="m904 456h64v64h-64z"/><path d="m968 456h64v64h-64z"/><path d="m1032 456h64v64h-64z"/><path d="m1224 456h64v64h-64z"/><path d="m712 520h64v64h-64z"/><path d="m776 520h64v64h-64z"/><path d="m968 520h64v64h-64z"/><path d="m712 584h64v64h-64z"/><path d="m840 584h64v64h-64z"/><path d="m968 584h64v64h-64z"/><path d="m1096 584h64v64h-64z"/><path d="m1224 584h64v64h-64z"/><path d="m712 648h64v64h-64z"/><path d="m776 648h64v64h-64z"/><path d="m840 648h64v64h-64z"/><path d="m968 648h64v64h-64z"/><path d="m1032 648h64v64h-64z"/><path d="m200 712h64v64h-64z"/><path d="m264 712h64v64h-64z"/><path d="m392 712h64v64h-64z"/><path d="m584 712h64v64h-64z"/><path d="m648 712h64v64h-64z"/><path d="m840 712h64v64h-64z"/><path d="m904 712h64v64h-64z"/><path d="m1032 712h64v64h-64z"/><path d="m1096 712h64v64h-64z"/><path d="m1224 712h64v64h-64z"/><path d="m1352 712h64v64h-64z"/><path d="m1416 712h64v64h-64z"/><path d="m1480 712h64v64h-64z"/><path d="m1608 712h64v64h-64z"/><path d="m1672 712h64v64h-64z"/><path d="m200 776h64v64h-64z"/><path d="m328 776h64v64h-64z"/><path d="m392 776h64v64h-64z"/><path d="m456 776h64v64h-64z"/><path d="m520 776h64v64h-64z"/><path d="m712 776h64v64h-64z"/><path d="m904 776h64v64h-64z"/><path d="m968 776h64v64h-64z"/><path d="m1032 776h64v64h-64z"/><path d="m1096 776h64v64h-64z"/><path d="m1352 776h64v64h-64z"/><path d="m1480 776h64v64h-64z"/><path d="m1672 776h64v64h-64z"/><path d="m264 840h64v64h-64z"/><path d="m392 840h64v64h-64z"/><path d="m584 840h64v64h-64z"/><path d="m648 840h64v64h-64z"/><path d="m712 840h64v64h-64z"/><path d="m776 840h64v64h-64z"/><path d="m840 840h64v64h-64z"/><path d="m904 840h64v64h-64z"/><path d="m968 840h64v64h-64z"/><path d="m1224 840h64v64h-64z"/><path d="m1288 840h64v64h-64z"/><path d="m1352 840h64v64h-64z"/><path d="m1416 840h64v64h-64z"/><path d="m1544 840h64v64h-64z"/><path d="m1608 840h64v64h-64z"/><path d="m392 904h64v64h-64z"/><path d="m712 904h64v64h-64z"/><path d="m904 904h64v64h-64z"/><path d="m1096 904h64v64h-64z"/><path d="m1224 904h64v64h-64z"/><path d="m1288 904h64v64h-64z"/><path d="m1352 904h64v64h-64z"/><path d="m1416 904h64v64h-64z"/><path d="m1480 904h64v64h-64z"/><path d="m1736 904h64v64h-64z"/><path d="m328 968h64v64h-64z"/><path d="m392 968h64v64h-64z"/><path d="m456 968h64v64h-64z"/><path d="m520 968h64v64h-64z"/><path d="m584 968h64v64h-64z"/><path d="m1288 968h64v64h-64z"/><path d="m1352 968h64v64h-64z"/><path d="m1416 968h64v64h-64z"/><path d="m1608 968h64v64h-64z"/><path d="m1672 968h64v64h-64z"/><path d="m1736 968h64v64h-64z"/><path d="m328 1032h64v64h-64z"/><path d="m392 1032h64v64h-64z"/><path d="m456 1032h64v64h-64z"/><path d="m520 1032h64v64h-64z"/><path d="m840 1032h64v64h-64z"/><path d="m904 1032h64v64h-64z"/><path d="m1096 1032h64v64h-64z"/><path d="m1160 1032h64v64h-64z"/><path d="m1288 1032h64v64h-64z"/><path d="m1416 1032h64v64h-64z"/><path d="m1480 1032h64v64h-64z"/><path d="m1608 1032h64v64h-64z"/><path d="m200 1096h64v64h-64z"/><path d="m328 1096h64v64h-64z"/><path d="m392 1096h64v64h-64z"/><path d="m584 1096h64v64h-64z"/><path d="m648 1096h64v64h-64z"/><path d="m840 1096h64v64h-64z"/><path d="m968 1096h64v64h-64z"/><path d="m1032 1096h64v64h-64z"/><path d="m1352 1096h64v64h-64z"/><path d="m1480 1096h64v64h-64z"/><path d="m1544 1096h64v64h-64z"/><path d="m264 1160h64v64h-64z"/><path d="m520 1160h64v64h-64z"/><path d="m648 1160h64v64h-64z"/><path d="m712 1160h64v64h-64z"/><path d="m840 1160h64v64h-64z"/><path d="m968 1160h64v64h-64z"/><path d="m1224 1160h64v64h-64z"/><path d="m1288 1160h64v64h-64z"/><path d="m1352 1160h64v64h-64z"/><path d="m1416 1160h64v64h-64z"/><path d="m200 1224h64v64h-64z"/><path d="m264 1224h64v64h-64z"/><path d="m328 1224h64v64h-64z"/><path d="m456 1224h64v64h-64z"/><path d="m584 1224h64v64h-64z"/><path d="m712 1224h64v64h-64z"/><path d="m776 1224h64v64h-64z"/><path d="m1224 1224h64v64h-64z"/><path d="m1288 1224h64v64h-64z"/><path d="m1352 1224h64v64h-64z"/><path d="m1416 1224h64v64h-64z"/><path d="m1480 1224h64v64h-64z"/><path d="m1736 1224h64v64h-64z"/><path d="m712 1288h64v64h-64z"/><path d="m776 1288h64v64h-64z"/><path d="m1032 1288h64v64h-64z"/><path d="m1224 1288h64v64h-64z"/><path d="m1480 1288h64v64h-64z"/><path d="m712 1352h64v64h-64z"/><path d="m840 1352h64v64h-64z"/><path d="m968 1352h64v64h-64z"/><path d="m1032 1352h64v64h-64z"/><path d="m1224 1352h64v64h-64z"/><path d="m1352 1352h64v64h-64z"/><path d="m1480 1352h64v64h-64z"/><path d="m1544 1352h64v64h-64z"/><path d="m1672 1352h64v64h-64z"/><path d="m1736 1352h64v64h-64z"/><path d="m776 1416h64v64h-64z"/><path d="m968 1416h64v64h-64z"/><path d="m1160 1416h64v64h-64z"/><path d="m1224 1416h64v64h-64z"/><path d="m1480 1416h64v64h-64z"/><path d="m1544 1416h64v64h-64z"/><path d="m1608 1416h64v64h-64z"/><path d="m1672 1416h64v64h-64z"/><path d="m1736 1416h64v64h-64z"/><path d="m840 1480h64v64h-64z"/><path d="m904 1480h64v64h-64z"/><path d="m1032 1480h64v64h-64z"/><path d="m1096 1480h64v64h-64z"/><path d="m1160 1480h64v64h-64z"/><path d="m1224 1480h64v64h-64z"/><path d="m1288 1480h64v64h-64z"/><path d="m1352 1480h64v64h-64z"/><path d="m1416 1480h64v64h-64z"/><path d="m1480 1480h64v64h-64z"/><path d="m1608 1480h64v64h-64z"/><path d="m1672 1480h64v64h-64z"/><path d="m712 1544h64v64h-64z"/><path d="m776 1544h64v64h-64z"/><path d="m904 1544h64v64h-64z"/><path d="m968 1544h64v64h-64z"/><path d="m1032 1544h64v64h-64z"/><path d="m1096 1544h64v64h-64z"/><path d="m1224 1544h64v64h-64z"/><path d="m1288 1544h64v64h-64z"/><path d="m1352 1544h64v64h-64z"/><path d="m1416 1544h64v64h-64z"/><path d="m1480 1544h64v64h-64z"/><path d="m840 1608h64v64h-64z"/><path d="m904 1608h64v64h-64z"/><path d="m968 1608h64v64h-64z"/><path d="m1160 1608h64v64h-64z"/><path d="m1288 1608h64v64h-64z"/><path d="m1352 1608h64v64h-64z"/><path d="m1416 1608h64v64h-64z"/><path d="m1544 1608h64v64h-64z"/><path d="m1608 1608h64v64h-64z"/><path d="m1736 1608h64v64h-64z"/><path d="m712 1672h64v64h-64z"/><path d="m840 1672h64v64h-64z"/><path d="m904 1672h64v64h-64z"/><path d="m1032 1672h64v64h-64z"/><path d="m1096 1672h64v64h-64z"/><path d="m1160 1672h64v64h-64z"/><path d="m1224 1672h64v64h-64z"/><path d="m1288 1672h64v64h-64z"/><path d="m1544 1672h64v64h-64z"/><path d="m1672 1672h64v64h-64z"/><path d="m1736 1672h64v64h-64z"/><path d="m712 1736h64v64h-64z"/><path d="m840 1736h64v64h-64z"/><path d="m1032 1736h64v64h-64z"/><path d="m1096 1736h64v64h-64z"/><path d="m1160 1736h64v64h-64z"/><path d="m1480 1736h64v64h-64z"/><path d="m1544 1736h64v64h-64z"/><path d="m1672 1736h64v64h-64z"/><path d="m1736 1736h64v64h-64z"/><g shape-rendering="auto"><svg enable-background="new 0 0 699.988 699.986" height="448" version="1.1" viewBox="0 0 699.988 699.986" width="448" x="200" y="200"><path d="m600.99 0h-100-99.997-.001-99.997-99.998-99.998-99.999v99.998 99.998 99.998 99.999 99.997 99.998 99.998h99.999 99.998 99.998 99.997.001 99.997 100 99.998v-99.998-99.998-99.997-99.999-99.998-99.998-99.998zm0 199.996v99.998 99.999 99.997 99.998h-100-99.997-.001-99.997-99.998-99.998v-99.998-99.997-99.999-99.998-99.998h99.998 99.998 99.997.001 99.997 100z"/></svg><svg enable-background="new 0 0 699.988 699.988" height="448" version="1.0" viewBox="0 0 699.988 699.988" width="448" x="200" y="200"><path d="m399.994 199.997h-.002-99.996-99.998v99.997 100 99.997h99.998 99.996.002 99.996v-99.997-100-99.997z"/></svg><svg enable-background="new 0 0 699.988 699.986" height="448" version="1.1" viewBox="0 0 699.988 699.986" width="448" x="1352" y="200"><path d="m600.99 0h-100-99.997-.001-99.997-99.998-99.998-99.999v99.998 99.998 99.998 99.999 99.997 99.998 99.998h99.999 99.998 99.998 99.997.001 99.997 100 99.998v-99.998-99.998-99.997-99.999-99.998-99.998-99.998zm0 199.996v99.998 99.999 99.997 99.998h-100-99.997-.001-99.997-99.998-99.998v-99.998-99.997-99.999-99.998-99.998h99.998 99.998 99.997.001 99.997 100z"/></svg><svg enable-background="new 0 0 699.988 699.988" height="448" version="1.0" viewBox="0 0 699.988 699.988" width="448" x="1352" y="200"><path d="m399.994 199.997h-.002-99.996-99.998v99.997 100 99.997h99.998 99.996.002 99.996v-99.997-100-99.997z"/></svg><svg enable-background="new 0 0 699.988 699.986" height="448" version="1.1" viewBox="0 0 699.988 699.986" width="448" x="200" y="1352"><path d="m600.99 0h-100-99.997-.001-99.997-99.998-99.998-99.999v99.998 99.998 99.998 99.999 99.997 99.998 99.998h99.999 99.998 99.998 99.997.001 99.997 100 99.998v-99.998-99.998-99.997-99.999-99.998-99.998-99.998zm0 199.996v99.998 99.999 99.997 99.998h-100-99.997-.001-99.997-99.998-99.998v-99.998-99.997-99.999-99.998-99.998h99.998 99.998 99.997.001 99.997 100z"/></svg><svg enable-background="new 0 0 699.988 699.988" height="448" version="1.0" viewBox="0 0 699.988 699.988" width="448" x="200" y="1352"><path d="m399.994 199.997h-.002-99.996-99.998v99.997 100 99.997h99.998 99.996.002 99.996v-99.997-100-99.997z"/></svg></g></svg></svg>